<?xml version="1.0" encoding="utf-8"?>
<!-- Generator: Adobe Illustrator 16.0.0, SVG Export Plug-In . SVG Version: 6.00 Build 0)  -->
<!DOCTYPE svg PUBLIC "-//W3C//DTD SVG 1.1//EN" "http://www.w3.org/Graphics/SVG/1.1/DTD/svg11.dtd">
<svg version="1.1" id="Layer_1" xmlns="http://www.w3.org/2000/svg" xmlns:xlink="http://www.w3.org/1999/xlink" x="0px" y="0px"
	 width="263px" height="263px" viewBox="0 0 263 263" enable-background="new 0 0 263 263" xml:space="preserve">
<g>
	<circle fill="#161616" cx="131.5" cy="131.5" r="128.732"/>
	<polygon fill="#FFFF00" points="172.328,25.856 151.579,60.25 131.723,25.856 111.718,60.507 90.077,25.856 90.077,91.26 
		172.328,91.26 	"/>
	<polygon fill="#FFFFFF" points="172.328,95.989 228.994,194.473 33.263,194.473 90.077,95.987 	"/>
	<path fill="#161616" d="M118.337,159.834c0,4.313-3.496,7.811-7.81,7.811l0,0c-4.313,0-7.809-3.498-7.809-7.811v-28.557
		c0-4.313,3.496-7.81,7.809-7.81l0,0c4.313,0,7.81,3.496,7.81,7.81V159.834z"/>
	<path fill="#161616" d="M161.173,159.834c0,4.313-3.496,7.811-7.809,7.811l0,0c-4.313,0-7.81-3.498-7.81-7.811v-28.557
		c0-4.313,3.495-7.81,7.81-7.81l0,0c4.313,0,7.809,3.496,7.809,7.81V159.834z"/>
</g>
</svg>
